# xmcd
#
# Track frame offsets: 
#        150
#        10930
#        21958
#        36918
#        47239
#        57427
#        69305
#        83899
#        94224
#        105416
#        114689
#        125945
#        139141
#        152631
#        166299
#        179351
#        193713
#        205868
#        218446
#        232600
#
# Disc length: 3246 seconds
#
# Revision: 0
# Processed by: cddbd v1.4PL0 Copyright (c) Steve Scherf et al.
# Submitted via: ExactAudioCopy v0.95a3
#
DISCID=130cac14
DTITLE=Dinah Washington - Blues Legends 12 Dinah Washington
DYEAR=1900
DGENRE=Blues
TTITLE0=Go Pretty Daddy
TTITLE1=TV is the Thing
TTITLE2=Feel like I Wanna Cry
TTITLE3=Lean Baby
TTITLE4=Never, Never
TTITLE5=I Ain't Goin' To Cry Anymore
TTITLE6=Am I Blue
TTITLE7=Pennies from Heaven
TTITLE8=Set Me Free
TTITLE9=Since My Man Had Gone and Went
TTITLE10=My Man's An Undertaker
TTITLE11=My Song
TTITLE12=Mad about the Boy
TTITLE13=Stormy Weather
TTITLE14=Ain't Nothin' Good
TTITLE15=I Challenge Your Kiss
TTITLE16=I'm Crying
TTITLE17=I Can't Face the Music
TTITLE18=Don't Get Around Much Anymore
TTITLE19=Fat Daddy
EXTD=
EXTT0=
EXTT1=
EXTT2=
EXTT3=
EXTT4=
EXTT5=
EXTT6=
EXTT7=
EXTT8=
EXTT9=
EXTT10=
EXTT11=
EXTT12=
EXTT13=
EXTT14=
EXTT15=
EXTT16=
EXTT17=
EXTT18=
EXTT19=
PLAYORDER=
